<svg width="332" height="332" viewBox="0 0 332 332" fill="none" xmlns="http://www.w3.org/2000/svg">
<path d="M166.099 0.401031C74.6979 0.401031 0.598938 74.4948 0.598938 165.901C0.598938 257.302 74.6979 331.401 166.099 331.401C257.505 331.401 331.599 257.302 331.599 165.901C331.599 74.4948 257.505 0.401031 166.099 0.401031Z" fill="#383C61"/>
<path d="M131.398 311.327L137.711 280.389C137.846 279.738 138.279 279.483 139.003 279.618L154.982 282.889C155.273 282.946 155.482 283.092 155.607 283.327C155.732 283.566 155.763 283.821 155.711 284.098C155.654 284.389 155.508 284.634 155.273 284.827C155.05 285.009 154.805 285.071 154.544 285.014L139.732 281.993L137.023 295.223L144.169 296.681C144.445 296.738 144.654 296.889 144.794 297.139C144.93 297.389 144.971 297.66 144.919 297.952C144.779 298.608 144.388 298.868 143.753 298.743L136.607 297.285L133.648 311.785C133.523 312.41 133.086 312.644 132.336 312.493C131.586 312.337 131.273 311.952 131.398 311.327Z" fill="#FFE05C"/>
<path d="M156.682 285.947C156.724 285.53 156.917 285.176 157.265 284.884C157.625 284.582 158.042 284.441 158.515 284.467C158.974 284.509 159.359 284.707 159.682 285.051C160 285.4 160.14 285.78 160.099 286.197C160.068 286.655 159.87 287.046 159.495 287.363C159.13 287.686 158.724 287.822 158.265 287.78C157.792 287.754 157.401 287.561 157.099 287.197C156.792 286.822 156.651 286.405 156.682 285.947ZM155.203 315.113L156.64 295.426C156.682 294.816 157.062 294.54 157.786 294.592C158.547 294.65 158.911 294.983 158.87 295.592L157.432 315.28C157.417 315.519 157.286 315.733 157.036 315.926C156.797 316.134 156.526 316.223 156.224 316.197C155.932 316.181 155.682 316.061 155.474 315.842C155.276 315.624 155.187 315.379 155.203 315.113Z" fill="#FFE05C"/>
<path d="M163.841 313.865C163.841 313.631 163.914 313.397 164.07 313.157C164.237 312.923 164.424 312.803 164.633 312.803C164.81 312.761 165.06 312.86 165.383 313.095L166.466 313.782C166.841 314.022 167.409 314.251 168.174 314.47C168.95 314.678 169.82 314.761 170.778 314.72C172.487 314.668 173.742 314.298 174.549 313.615C175.351 312.938 175.737 312.074 175.695 311.032C175.653 309.813 175.226 308.86 174.424 308.178C173.617 307.501 172.653 307.022 171.528 306.74C170.403 306.464 169.263 306.157 168.112 305.824C166.971 305.49 165.997 304.928 165.195 304.136C164.388 303.334 163.955 302.23 163.903 300.824C163.846 299.24 164.383 297.819 165.508 296.553C166.643 295.293 168.362 294.615 170.653 294.532C172.096 294.49 173.445 294.673 174.695 295.074C175.945 295.464 176.575 295.902 176.591 296.386C176.601 296.636 176.508 296.902 176.299 297.178C176.101 297.459 175.883 297.605 175.633 297.615C175.601 297.615 175.06 297.438 174.008 297.074C172.95 296.699 171.872 296.527 170.778 296.553C169.122 296.626 167.903 297.089 167.112 297.949C166.33 298.798 165.966 299.72 166.008 300.72C166.034 301.751 166.445 302.543 167.237 303.095C168.039 303.652 169.013 304.063 170.153 304.324C171.304 304.589 172.45 304.897 173.591 305.24C174.742 305.574 175.726 306.199 176.549 307.115C177.367 308.022 177.804 309.251 177.862 310.803C177.914 312.584 177.33 314.001 176.112 315.053C174.888 316.11 173.143 316.673 170.883 316.74C168.924 316.808 167.263 316.527 165.903 315.886C164.554 315.251 163.867 314.574 163.841 313.865Z" fill="#FFE05C"/>
<path d="M185.4 314.435L178.754 281.915C178.702 281.654 178.754 281.409 178.92 281.185C179.087 280.951 179.327 280.8 179.629 280.727C179.962 280.659 180.254 280.701 180.504 280.852C180.754 280.993 180.91 281.196 180.962 281.456L184.108 296.873C184.426 295.821 185.035 294.852 185.941 293.977C186.842 293.102 187.993 292.519 189.4 292.227C191.592 291.784 193.65 292.217 195.566 293.519C197.483 294.81 198.676 296.576 199.15 298.81L201.65 311.102C201.785 311.758 201.483 312.159 200.733 312.31C200.009 312.467 199.577 312.217 199.441 311.56L196.941 299.269C196.608 297.685 195.712 296.389 194.254 295.373C192.795 294.347 191.259 293.998 189.65 294.331C188.108 294.654 186.863 295.498 185.92 296.873C184.988 298.237 184.717 299.842 185.108 301.685L187.608 313.977C187.66 314.217 187.597 314.467 187.42 314.727C187.238 314.977 186.993 315.139 186.691 315.206C186.384 315.264 186.108 315.217 185.858 315.06C185.608 314.909 185.452 314.701 185.4 314.435Z" fill="#FFE05C"/>
<path d="M254.76 181.859C254.656 180.839 253.766 180.016 252.729 180.016C252.609 180.016 252.49 180.016 252.37 180.016C243.234 172.776 232.938 162.255 228.62 147.818C226.984 142.359 224.63 137.948 221.703 134.323C218.688 125.896 213.104 118.76 205.406 113.906C192.224 105.594 117.193 108.156 105.552 108.302C101.13 108.359 99.0313 113.797 102.271 116.823C106.464 120.729 111.198 125.141 114.646 128.042C109.802 135.552 109.578 145.344 111.115 150.896C112.167 154.714 112.917 159.078 113.438 162.938L83.0729 134.141L83.0469 134.172C78.4271 141.313 76.8125 150.87 80.4948 158.448C81.7396 161 83.4479 163.432 83.8802 166.198C84.5781 170.604 81.9271 174.786 80.1563 178.938C77.5938 184.927 76.0417 191.38 80.1042 196.63L113.88 173.245C113.661 173.833 113.422 174.458 113.151 175.141C106.974 190.823 108.266 198.667 112.578 208.589C114.271 212.484 117.115 215.26 119.943 217.198C123.714 219.776 128.052 221.135 132.469 221.365L134.396 221.464C134.344 221.422 134.297 221.38 134.25 221.339C134.865 221.385 135.484 221.417 136.109 221.422C145.557 221.531 157.609 221.885 169.448 222.224C167.219 226.042 164.474 230.708 162.453 234.135C161.286 236.12 162.786 238.609 165.083 238.484C172.823 238.063 187.25 236.094 197.927 222.964C198.802 222.958 199.693 222.948 200.594 222.938C205.958 222.854 211.651 222.568 216.557 221.891C218.755 221.583 220.802 221.203 222.583 220.724C233.781 217.724 244.87 198.781 248.714 191.193C248.818 191.036 248.917 190.885 249.016 190.745C249.948 190.536 250.771 189.797 250.724 188.75C250.677 187.719 249.823 186.599 248.682 186.703C248.031 186.76 247.375 186.781 246.719 186.76C246.036 186.734 245.568 186.688 245.073 186.594C243.854 186.375 242.521 185.964 241.568 185.505C241.083 185.271 240.609 185.016 240.156 184.724C240.026 184.641 239.891 184.552 239.76 184.458C239.745 184.448 239.641 184.375 239.578 184.328C239.521 184.281 239.427 184.203 239.411 184.193C239.38 184.167 239.349 184.135 239.318 184.109C243.786 184.109 248.26 184.109 252.729 184.109C253.672 184.109 254.495 183.417 254.714 182.526L255.599 182.484C255.323 182.281 255.042 182.073 254.76 181.859Z" fill="white"/>
<path d="M211.214 177.594C207.422 180.448 203.734 183.474 200.172 186.677C197.375 181.443 195.094 175.719 194.604 169.651C194.109 163.583 195.599 157.109 199.469 152.802C203.453 155.885 207.432 158.964 211.417 162.047C208.573 163.281 206.484 165.891 206.177 169.073C205.823 172.74 207.932 176.078 211.214 177.594ZM114.646 128.042C109.802 135.552 109.578 145.344 111.115 150.896C112.167 154.714 112.917 159.078 113.437 162.938L119.911 169.073L119.839 169.125L119.901 169.115C119.901 169.115 120.505 169.526 120.141 172.698L120.156 172.693C120.734 169.99 120.875 165.255 120.896 161.714C120.911 159.229 120.693 156.745 120.198 154.313C116.068 134.167 127.042 121.76 130.083 118.776C130.557 118.313 130.839 118.073 130.839 118.073C122.937 119.219 117.807 123.146 114.646 128.042Z" fill="#FF8657"/>
<path d="M176.719 116.672C176.724 116.641 176.729 116.615 176.734 116.589C176.734 116.589 136.12 115.563 130.87 118.354C130.615 118.49 130.349 118.63 130.083 118.776C130.557 118.313 130.839 118.073 130.839 118.073C122.937 119.219 117.807 123.146 114.646 128.042C111.198 125.141 106.464 120.729 102.271 116.823C99.0312 113.797 101.13 108.359 105.552 108.302C117.193 108.156 192.224 105.594 205.406 113.906C213.104 118.76 218.687 125.896 221.703 134.323C214.495 125.391 203.776 121.24 191.552 118.12C188.839 117.427 183.354 116.922 176.719 116.672ZM118.609 180.078C119.417 177.052 119.854 174.859 120.068 173.26C120.099 173.068 120.12 172.875 120.141 172.698C120.505 169.526 119.901 169.115 119.901 169.115L119.839 169.125L119.911 169.073L113.437 162.938L83.0729 134.141L99.4323 158.203L102.911 163.323L103.229 163.786L106.656 168.823L106.797 169.036L80.1042 196.63L113.88 173.245C113.661 173.833 113.422 174.458 113.151 175.141C106.974 190.823 108.266 198.667 112.578 208.589C114.271 212.484 117.115 215.26 119.943 217.198C123.714 219.776 128.052 221.135 132.469 221.365L134.396 221.464C134.344 221.422 134.297 221.38 134.25 221.339C119.406 208.453 113.104 200.734 118.609 180.078ZM254.76 181.859C254.656 180.839 253.766 180.016 252.729 180.016C252.609 180.016 252.49 180.016 252.37 180.016C246.901 180.016 241.432 180.016 235.964 180.016C235.573 180.016 235.203 180.135 234.891 180.339C233.974 180.734 233.318 181.76 233.651 182.786C234.437 185.208 236.125 187.068 238.234 188.391C234.042 188.802 228.573 189.536 221.594 190.818C198.229 195.094 181.141 222.51 181.141 222.51C181.141 222.51 181.594 222.536 182.406 222.583C184.932 222.719 190.979 222.99 197.927 222.964C198.802 222.958 199.693 222.948 200.594 222.938C205.958 222.854 211.651 222.568 216.557 221.891C218.755 221.583 220.802 221.203 222.583 220.724C233.781 217.724 244.87 198.781 248.714 191.193C248.786 191.047 248.859 190.901 248.932 190.76C248.958 190.755 248.99 190.75 249.016 190.745C249.948 190.536 250.771 189.797 250.724 188.75C250.677 187.719 249.823 186.599 248.682 186.703C248.031 186.76 247.375 186.781 246.719 186.76C246.036 186.734 245.568 186.688 245.073 186.594C243.854 186.375 242.521 185.964 241.568 185.505C241.083 185.271 240.609 185.016 240.156 184.724C240.026 184.641 239.891 184.552 239.76 184.458C239.745 184.448 239.641 184.375 239.578 184.328C239.521 184.281 239.427 184.203 239.411 184.193C239.38 184.167 239.349 184.135 239.318 184.109C243.786 184.109 248.26 184.109 252.729 184.109C253.672 184.109 254.495 183.417 254.714 182.526C254.75 182.375 254.771 182.219 254.771 182.063C254.771 181.995 254.766 181.927 254.76 181.859Z" fill="#FFE05C"/>
<path d="M197.927 222.964C187.25 236.094 172.823 238.063 165.083 238.484C162.786 238.609 161.286 236.12 162.453 234.135C164.474 230.708 167.219 226.042 169.448 222.224C173.844 222.349 178.214 222.474 182.406 222.583C184.932 222.719 190.979 222.99 197.927 222.964ZM101.641 171.964C93.8125 177.245 86.849 183.781 81.0313 191.234C80.4115 192.031 79.3125 190.911 79.9271 190.125C81.5938 187.99 83.349 185.927 85.1979 183.948C91.1875 177.542 98.1146 172.016 105.672 167.583C105.62 167.568 105.568 167.552 105.516 167.536C98.5625 168.682 91.9219 171.49 86.224 175.677C85.4063 176.276 84.6302 174.917 85.4323 174.323C90.3125 170.734 95.875 168.167 101.729 166.724C100.255 166.526 98.7604 166.448 97.25 166.458C94.3333 166.469 91.2604 166.474 88.3906 167.042C87.401 167.234 86.9844 165.724 87.974 165.526C90.9844 164.932 94.1875 164.901 97.25 164.885C99.1146 164.875 100.964 164.995 102.786 165.297C100.344 164.339 97.9427 163.266 95.6094 162.068C93.5938 161.031 91.625 159.911 89.7083 158.698C87.8594 157.531 86.026 156.297 84.5104 154.698C83.8177 153.964 84.9219 152.854 85.6198 153.589C87.1042 155.156 88.901 156.344 90.724 157.484C92.5677 158.641 94.4635 159.719 96.401 160.714C98.625 161.854 100.906 162.875 103.229 163.786L102.911 163.323C102.406 162.922 101.906 162.516 101.411 162.099C93.7135 155.677 87.1406 147.932 81.9219 139.359C81.375 138.464 82.7813 137.641 83.3281 138.536C84.7813 140.927 86.3385 143.255 88.0052 145.51C91.3958 150.094 95.2292 154.354 99.4323 158.203L83.0729 134.141L83.0469 134.172C78.4271 141.313 76.8125 150.87 80.4948 158.448C81.7396 161 83.4479 163.432 83.8802 166.198C84.5781 170.604 81.9271 174.786 80.1563 178.938C77.5938 184.927 76.0417 191.38 80.1042 196.63L106.797 169.036L106.656 168.823C104.948 169.818 103.276 170.865 101.641 171.964ZM147.922 197.266C151.604 197.453 155.464 197.609 158.953 196.193C160.505 195.563 161.953 194.708 163.141 193.51C164.349 192.297 164.927 190.714 165.984 189.406C167.745 187.245 171.073 187.438 173.599 187.495C176.682 187.563 179.766 187.563 182.844 187.573C186.396 187.578 189.943 187.578 193.49 187.656C195.594 187.708 195.594 184.427 193.49 184.38C187.198 184.234 180.901 184.344 174.604 184.234C171.599 184.182 168.38 184.01 165.646 185.51C164.083 186.365 163.099 187.745 162.219 189.25C161.484 190.51 160.656 191.552 159.406 192.328C155.984 194.453 151.776 194.188 147.922 193.99C147.042 193.943 146.292 194.776 146.292 195.625C146.292 196.552 147.036 197.219 147.922 197.266ZM163.141 202.229C164.536 200.917 165.057 198.948 166.448 197.672C167.474 196.724 168.984 196.401 170.349 196.286C172.052 196.146 173.776 196.245 175.484 196.281C177.333 196.318 179.188 196.354 181.036 196.385C185.115 196.464 189.198 196.531 193.281 196.625C195.38 196.677 195.38 193.401 193.281 193.349C189.604 193.26 185.927 193.198 182.25 193.13C178.729 193.068 175.188 192.875 171.667 192.948C169.797 192.984 167.922 193.214 166.203 193.979C164.453 194.76 163.292 196.161 162.344 197.786C161.521 199.198 160.646 200.406 159.12 200.932C157.495 201.5 155.849 201.484 154.125 201.495C149.057 201.526 143.984 201.417 138.922 201.172C138.036 201.13 137.286 201.958 137.286 202.813C137.286 203.734 138.036 204.406 138.922 204.448C143.505 204.672 148.099 204.781 152.693 204.776C156.318 204.771 160.313 204.896 163.141 202.229ZM167.302 208.469C167.953 207.432 168.458 206.224 169.464 205.49C170.365 204.833 171.516 204.536 172.609 204.411C173.958 204.25 175.323 204.297 176.677 204.328C178.354 204.37 180.031 204.406 181.703 204.448C185.583 204.542 189.458 204.63 193.339 204.724C195.443 204.776 195.438 201.495 193.339 201.448C189.891 201.365 186.443 201.281 183 201.203C179.875 201.125 176.714 200.891 173.594 201.057C170.875 201.198 168.01 201.885 166.224 204.104C165.318 205.229 164.792 206.62 163.833 207.698C163 208.635 161.953 209.339 160.807 209.844C157.63 211.25 153.995 210.99 150.62 210.818C149.74 210.771 148.984 211.599 148.984 212.453C148.984 213.38 149.734 214.047 150.62 214.094C153.901 214.26 157.286 214.406 160.469 213.443C163.25 212.599 165.734 210.958 167.302 208.469ZM231.104 169.089L216.38 150.448C214.167 152.281 213.75 153.599 213.349 156.453C213.115 158.099 213.25 159.792 213.714 161.385C214.443 161.276 215.198 161.25 215.964 161.318C220.911 161.755 224.552 165.938 224.094 170.661C223.635 175.38 219.255 178.854 214.307 178.417C214.161 178.406 214.021 178.385 213.88 178.37C213.167 181.849 213.958 185.641 216.078 188.5L230.635 175.073C232.328 173.51 232.536 170.896 231.104 169.089Z" fill="#6191DC"/>
<path d="M176.734 116.589C176.729 116.615 176.724 116.641 176.719 116.672C168.057 171.745 132.927 174.255 120.068 173.26C120.099 173.068 120.12 172.875 120.141 172.698L120.156 172.693C120.734 169.99 120.875 165.255 120.896 161.714C120.911 159.229 120.693 156.745 120.198 154.313C116.068 134.167 127.042 121.76 130.083 118.776C130.349 118.63 130.615 118.49 130.87 118.354C136.12 115.563 176.734 116.589 176.734 116.589ZM215.74 163C212.464 162.708 209.505 164.563 208.37 167.349C208.859 167.005 209.458 166.797 210.115 166.797C211.745 166.797 213.073 168.078 213.073 169.661C213.073 171.245 211.745 172.526 210.115 172.526C209.38 172.526 208.708 172.266 208.193 171.839C209.021 174.427 211.411 176.411 214.411 176.677C218.37 177.026 221.875 174.25 222.24 170.474C222.604 166.698 219.693 163.349 215.74 163Z" fill="#383C61"/>
<path d="M254.714 182.526C254.75 182.375 254.771 182.219 254.771 182.063C254.771 181.995 254.766 181.927 254.76 181.859C255.042 182.073 255.323 182.281 255.599 182.484L254.714 182.526ZM248.714 191.193C248.818 191.036 248.917 190.885 249.016 190.745C248.99 190.75 248.958 190.755 248.932 190.76C248.859 190.901 248.786 191.047 248.714 191.193ZM252.37 180.016C246.901 180.016 241.432 180.016 235.964 180.016C235.573 180.016 235.203 180.135 234.891 180.339C233.974 180.734 233.318 181.76 233.651 182.786C234.438 185.208 236.125 187.068 238.234 188.391C234.042 188.802 228.573 189.536 221.594 190.818C198.229 195.094 181.141 222.51 181.141 222.51C181.141 222.51 181.594 222.536 182.406 222.583C178.214 222.474 173.844 222.349 169.448 222.224C157.609 221.885 145.557 221.531 136.109 221.422C135.484 221.417 134.865 221.385 134.25 221.339C119.406 208.453 113.104 200.734 118.609 180.078C119.417 177.052 119.854 174.859 120.068 173.26C132.927 174.255 168.057 171.745 176.719 116.672C183.354 116.922 188.839 117.427 191.552 118.12C203.776 121.24 214.495 125.391 221.703 134.323C224.63 137.948 226.984 142.359 228.62 147.818C232.938 162.255 243.234 172.776 252.37 180.016ZM138.922 204.448C143.505 204.672 148.099 204.781 152.693 204.776C156.318 204.771 160.313 204.896 163.141 202.229C164.536 200.917 165.057 198.948 166.448 197.672C167.474 196.724 168.984 196.401 170.349 196.286C172.052 196.146 173.776 196.245 175.484 196.281C177.333 196.318 179.188 196.354 181.036 196.385C185.115 196.464 189.198 196.531 193.281 196.625C195.38 196.677 195.38 193.401 193.281 193.349C189.604 193.26 185.927 193.198 182.25 193.13C178.729 193.068 175.188 192.875 171.667 192.948C169.797 192.984 167.922 193.214 166.203 193.979C164.453 194.76 163.292 196.161 162.344 197.786C161.521 199.198 160.646 200.406 159.12 200.932C157.495 201.5 155.849 201.484 154.125 201.495C149.057 201.526 143.984 201.417 138.922 201.172C138.036 201.13 137.286 201.958 137.286 202.813C137.286 203.734 138.036 204.406 138.922 204.448ZM193.339 201.448C189.891 201.365 186.443 201.281 183 201.203C179.875 201.125 176.714 200.891 173.594 201.057C170.875 201.198 168.01 201.885 166.224 204.104C165.318 205.229 164.792 206.62 163.833 207.698C163 208.635 161.953 209.339 160.807 209.844C157.63 211.25 153.995 210.99 150.62 210.818C149.74 210.771 148.984 211.599 148.984 212.453C148.984 213.38 149.734 214.047 150.62 214.094C153.901 214.26 157.286 214.406 160.469 213.443C163.25 212.599 165.734 210.958 167.302 208.469C167.953 207.432 168.458 206.224 169.464 205.49C170.365 204.833 171.516 204.536 172.609 204.411C173.958 204.25 175.323 204.297 176.677 204.328C178.354 204.37 180.031 204.406 181.703 204.448C185.583 204.542 189.458 204.63 193.339 204.724C195.443 204.776 195.438 201.495 193.339 201.448ZM193.49 184.38C187.198 184.234 180.901 184.344 174.604 184.234C171.599 184.182 168.38 184.01 165.646 185.51C164.083 186.365 163.099 187.745 162.219 189.25C161.484 190.51 160.656 191.552 159.406 192.328C155.984 194.453 151.776 194.188 147.922 193.99C147.042 193.943 146.292 194.776 146.292 195.625C146.292 196.552 147.036 197.219 147.922 197.266C151.604 197.453 155.464 197.609 158.953 196.193C160.505 195.563 161.953 194.708 163.141 193.51C164.349 192.297 164.927 190.714 165.984 189.406C167.745 187.245 171.073 187.438 173.599 187.495C176.682 187.563 179.766 187.563 182.844 187.573C186.396 187.578 189.943 187.578 193.49 187.656C195.594 187.708 195.594 184.427 193.49 184.38ZM211.214 177.594C207.932 176.078 205.823 172.74 206.177 169.073C206.484 165.891 208.573 163.281 211.417 162.047C207.432 158.964 203.453 155.885 199.469 152.802C195.599 157.109 194.109 163.583 194.604 169.651C195.094 175.719 197.375 181.443 200.172 186.677C203.734 183.474 207.422 180.448 211.214 177.594ZM213.073 169.661C213.073 171.245 211.745 172.526 210.115 172.526C209.38 172.526 208.708 172.266 208.193 171.839C209.021 174.427 211.411 176.411 214.411 176.677C218.37 177.026 221.875 174.25 222.24 170.474C222.604 166.698 219.693 163.349 215.74 163C212.464 162.708 209.505 164.563 208.37 167.349C208.859 167.005 209.458 166.797 210.115 166.797C211.745 166.797 213.073 168.078 213.073 169.661ZM231.104 169.089L216.38 150.448C214.167 152.281 213.75 153.599 213.349 156.453C213.115 158.099 213.25 159.792 213.714 161.385C214.443 161.276 215.198 161.25 215.964 161.318C220.911 161.755 224.552 165.938 224.094 170.661C223.635 175.38 219.255 178.854 214.307 178.417C214.161 178.406 214.021 178.385 213.88 178.37C213.167 181.849 213.958 185.641 216.078 188.5L230.635 175.073C232.328 173.51 232.536 170.896 231.104 169.089ZM101.411 162.099C101.906 162.516 102.406 162.922 102.911 163.323L99.4323 158.203C95.2292 154.354 91.3958 150.094 88.0052 145.51C86.3385 143.255 84.7812 140.927 83.3281 138.536C82.7812 137.641 81.375 138.464 81.9219 139.359C87.1406 147.932 93.7135 155.677 101.411 162.099ZM96.401 160.714C94.4635 159.719 92.5677 158.641 90.724 157.484C88.901 156.344 87.1042 155.156 85.6198 153.589C84.9219 152.854 83.8177 153.964 84.5104 154.698C86.026 156.297 87.8594 157.531 89.7083 158.698C91.625 159.911 93.5937 161.031 95.6094 162.068C97.9427 163.266 100.344 164.339 102.786 165.297C100.964 164.995 99.1146 164.875 97.25 164.885C94.1875 164.901 90.9844 164.932 87.974 165.526C86.9844 165.724 87.401 167.234 88.3906 167.042C91.2604 166.474 94.3333 166.469 97.25 166.458C98.7604 166.448 100.255 166.526 101.729 166.724C95.875 168.167 90.3125 170.734 85.4323 174.323C84.6302 174.917 85.4062 176.276 86.224 175.677C91.9219 171.49 98.5625 168.682 105.516 167.536C105.568 167.552 105.62 167.568 105.672 167.583C98.1146 172.016 91.1875 177.542 85.1979 183.948C83.349 185.927 81.5937 187.99 79.9271 190.125C79.3125 190.911 80.4115 192.031 81.0312 191.234C86.849 183.781 93.8125 177.245 101.641 171.964C103.276 170.865 104.948 169.818 106.656 168.823L103.229 163.786C100.906 162.875 98.625 161.854 96.401 160.714Z" fill="white"/>
<path d="M18.8608 125.232L13.3087 148.607L53.6473 158.195L55.8348 149.003L39.6473 145.154L42.7619 132.05L34.6942 130.133L31.5796 143.237L23.5587 141.331L26.9285 127.149L18.8608 125.232Z" fill="white"/>
<path d="M36.1198 89.5255L31.6146 97.0202L58.5625 132.682L63.7917 123.979L58.2344 117.124L66.3646 103.593L75.0782 105.197L80.3073 96.4942L36.1198 89.5255ZM57.599 102.083L52.7865 110.093L44.8282 99.9161L57.599 102.083Z" fill="white"/>
<path d="M81.9309 95.5462L89.3267 89.6608L76.0506 72.9889L109.696 73.4473L83.8684 41.0046L76.4777 46.89L89.7017 63.666L56.1079 63.1087L81.9309 95.5462Z" fill="white"/>
<path d="M100.3 41.6252L109.503 38.1148L121.336 69.1044L130.165 65.7346L118.331 34.745L127.534 31.2294L124.576 23.4794L97.3417 33.8804L100.3 41.6252Z" fill="white"/>
<path d="M163.684 18.508L154.945 18.8725L140.023 61.008L150.163 60.5757L152.83 52.1642L168.596 51.4975L172.059 59.6538L182.205 59.2267L163.684 18.508ZM165.033 43.3517L155.695 43.7423L159.804 31.4975L165.033 43.3517Z" fill="white"/>
<path d="M191.123 49.4375L184.331 55.7031C197.331 72.1041 213.67 66.526 216.493 57.0364C219.79 45.9583 202.54 39.6198 203.842 35.2343C204.831 31.9114 212.461 31.2968 216.852 38.2135L222.665 32.0781C209.409 18.276 197.415 24.4062 194.878 32.9375C192.17 42.0416 208.279 48.3541 206.415 54.6146C204.649 60.5416 195.316 54.7239 191.123 49.4375Z" fill="white"/>
<path d="M232.32 42.0542L240.612 47.3771L222.69 75.2937L230.638 80.3979L248.56 52.4812L256.852 57.8042L261.331 50.825L236.8 35.075L232.32 42.0542Z" fill="white"/>
<path d="M276.964 65.792L270.209 59.1826L241.204 88.8128L247.959 95.4222L276.964 65.792Z" fill="white"/>
<path d="M270.99 125.716L277.74 119.013C277.74 119.013 274.068 117.008 271.469 112.94C266.349 104.94 269.693 97.8515 274.391 94.8463C279.052 91.8671 286.885 91.8046 292.005 99.8099C294.604 103.872 294.885 108.049 294.885 108.049L303.802 104.732C303.802 104.732 303.901 101.154 299.052 93.5703C292.719 83.664 278.818 79.8411 268.786 86.263C258.792 92.6484 256.542 106.857 262.849 116.721C267.698 124.305 270.99 125.716 270.99 125.716Z" fill="white"/>
<path d="M318.507 147.277L316.07 138.147L300.58 142.277L297.757 131.688L313.247 127.558L310.815 118.428L270.747 129.11L273.185 138.24L288.627 134.126L291.45 144.709L276.007 148.829L278.44 157.959L318.507 147.277Z" fill="white"/>
<path d="M256.38 155.125C253.344 155.125 250.88 157.589 250.88 160.625C250.88 163.661 253.344 166.125 256.38 166.125C259.417 166.125 261.88 163.661 261.88 160.625C261.88 157.589 259.417 155.125 256.38 155.125Z" fill="white"/>
<path d="M93.2761 213.885C86.3698 213.885 80.7761 219.484 80.7761 226.385C80.7761 233.292 86.3698 238.885 93.2761 238.885C100.177 238.885 105.776 233.292 105.776 226.385C105.776 219.484 100.177 213.885 93.2761 213.885Z" fill="white"/>
<path d="M206.698 81.0677C199.792 81.0677 194.198 86.6615 194.198 93.5677C194.198 100.469 199.792 106.068 206.698 106.068C213.599 106.068 219.198 100.469 219.198 93.5677C219.198 86.6615 213.599 81.0677 206.698 81.0677Z" fill="white"/>
<path d="M85.9323 260.224C81.7917 260.224 78.4375 263.359 78.4375 267.224C78.4375 271.094 81.7917 274.224 85.9323 274.224C90.0677 274.224 93.4219 271.094 93.4219 267.224C93.4219 263.359 90.0677 260.224 85.9323 260.224Z" fill="#6191DC"/>
<path d="M54.4323 206.281C50.2969 206.281 46.9427 209.411 46.9427 213.281C46.9427 217.146 50.2969 220.281 54.4323 220.281C58.5729 220.281 61.9271 217.146 61.9271 213.281C61.9271 209.411 58.5729 206.281 54.4323 206.281Z" fill="#6191DC"/>
<path d="M252.729 125.443C249.687 125.443 247.229 127.906 247.229 130.943C247.229 133.979 249.687 136.443 252.729 136.443C255.766 136.443 258.229 133.979 258.229 130.943C258.229 127.906 255.766 125.443 252.729 125.443Z" fill="#6191DC"/>
</svg>
