<svg xmlns="http://www.w3.org/2000/svg" xmlns:xlink="http://www.w3.org/1999/xlink" width="500" zoomAndPan="magnify" viewBox="0 0 375 374.999991" height="500" preserveAspectRatio="xMidYMid meet" version="1.0"><defs><g/><clipPath id="id1"><path d="M 63.449219 55.050781 L 311.699219 55.050781 L 311.699219 303.300781 L 63.449219 303.300781 Z M 63.449219 55.050781 " clip-rule="nonzero"/></clipPath><clipPath id="id2"><path d="M 121 135 L 254.859375 135 L 254.859375 233.699219 L 121 233.699219 Z M 121 135 " clip-rule="nonzero"/></clipPath><clipPath id="id3"><path d="M 123 135 L 254.859375 135 L 254.859375 222 L 123 222 Z M 123 135 " clip-rule="nonzero"/></clipPath><clipPath id="id4"><path d="M 121 155 L 238 155 L 238 233.699219 L 121 233.699219 Z M 121 155 " clip-rule="nonzero"/></clipPath><clipPath id="id5"><path d="M 122 142 L 254.859375 142 L 254.859375 222 L 122 222 Z M 122 142 " clip-rule="nonzero"/></clipPath><clipPath id="id6"><path d="M 251.160156 171.09375 L 259.410156 171.09375 L 259.410156 179.34375 L 251.160156 179.34375 Z M 251.160156 171.09375 " clip-rule="nonzero"/></clipPath><clipPath id="id7"><path d="M 123.582031 215.164062 L 142.332031 215.164062 L 142.332031 233.914062 L 123.582031 233.914062 Z M 123.582031 215.164062 " clip-rule="nonzero"/></clipPath><clipPath id="id8"><path d="M 208.648438 115.550781 L 227.398438 115.550781 L 227.398438 134.300781 L 208.648438 134.300781 Z M 208.648438 115.550781 " clip-rule="nonzero"/></clipPath><clipPath id="id9"><path d="M 121.824219 249.917969 L 133.074219 249.917969 L 133.074219 260.417969 L 121.824219 260.417969 Z M 121.824219 249.917969 " clip-rule="nonzero"/></clipPath><clipPath id="id10"><path d="M 98.199219 209.460938 L 109.449219 209.460938 L 109.449219 219.960938 L 98.199219 219.960938 Z M 98.199219 209.460938 " clip-rule="nonzero"/></clipPath><clipPath id="id11"><path d="M 248.421875 148.832031 L 256.671875 148.832031 L 256.671875 157.082031 L 248.421875 157.082031 Z M 248.421875 148.832031 " clip-rule="nonzero"/></clipPath><clipPath id="id12"><path d="M 273.972656 201.453125 L 282.222656 201.453125 L 282.222656 209.703125 L 273.972656 209.703125 Z M 273.972656 201.453125 " clip-rule="nonzero"/></clipPath></defs><g clip-path="url(#id1)"><path fill="#383c61" d="M 187.574219 55.050781 C 119.023438 55.050781 63.449219 110.621094 63.449219 179.175781 C 63.449219 247.726562 119.023438 303.300781 187.574219 303.300781 C 256.128906 303.300781 311.699219 247.726562 311.699219 179.175781 C 311.699219 110.621094 256.128906 55.050781 187.574219 55.050781 " fill-opacity="1" fill-rule="nonzero"/></g><g fill="#ffe05c" fill-opacity="1"><g transform="translate(158.751992, 288.401274)"><g><path d="M 2.796875 -0.15625 L 7.53125 -23.359375 C 7.632812 -23.847656 7.957031 -24.039062 8.5 -23.9375 L 20.484375 -21.484375 C 20.703125 -21.441406 20.859375 -21.332031 20.953125 -21.15625 C 21.046875 -20.976562 21.070312 -20.785156 21.03125 -20.578125 C 20.988281 -20.359375 20.878906 -20.175781 20.703125 -20.03125 C 20.535156 -19.894531 20.351562 -19.847656 20.15625 -19.890625 L 9.046875 -22.15625 L 7.015625 -12.234375 L 12.375 -11.140625 C 12.582031 -11.097656 12.738281 -10.984375 12.84375 -10.796875 C 12.945312 -10.609375 12.976562 -10.40625 12.9375 -10.1875 C 12.832031 -9.695312 12.539062 -9.5 12.0625 -9.59375 L 6.703125 -10.6875 L 4.484375 0.1875 C 4.390625 0.65625 4.0625 0.832031 3.5 0.71875 C 2.9375 0.601562 2.703125 0.3125 2.796875 -0.15625 Z M 2.796875 -0.15625 "/></g></g></g><g fill="#ffe05c" fill-opacity="1"><g transform="translate(177.089729, 291.67865)"><g><path d="M 3.421875 -22.46875 C 3.453125 -22.78125 3.597656 -23.046875 3.859375 -23.265625 C 4.128906 -23.492188 4.441406 -23.597656 4.796875 -23.578125 C 5.140625 -23.546875 5.429688 -23.398438 5.671875 -23.140625 C 5.910156 -22.878906 6.015625 -22.59375 5.984375 -22.28125 C 5.960938 -21.9375 5.8125 -21.644531 5.53125 -21.40625 C 5.257812 -21.164062 4.953125 -21.0625 4.609375 -21.09375 C 4.253906 -21.113281 3.960938 -21.257812 3.734375 -21.53125 C 3.503906 -21.8125 3.398438 -22.125 3.421875 -22.46875 Z M 2.3125 -0.59375 L 3.390625 -15.359375 C 3.421875 -15.816406 3.707031 -16.023438 4.25 -15.984375 C 4.820312 -15.941406 5.09375 -15.691406 5.0625 -15.234375 L 3.984375 -0.46875 C 3.972656 -0.289062 3.875 -0.128906 3.6875 0.015625 C 3.507812 0.171875 3.304688 0.238281 3.078125 0.21875 C 2.859375 0.207031 2.671875 0.117188 2.515625 -0.046875 C 2.367188 -0.210938 2.300781 -0.394531 2.3125 -0.59375 Z M 2.3125 -0.59375 "/></g></g></g><g fill="#ffe05c" fill-opacity="1"><g transform="translate(184.7244, 292.336588)"><g><path d="M 1.15625 -2.1875 C 1.15625 -2.363281 1.210938 -2.539062 1.328125 -2.71875 C 1.453125 -2.894531 1.59375 -2.984375 1.75 -2.984375 C 1.882812 -3.015625 2.070312 -2.941406 2.3125 -2.765625 L 3.125 -2.25 C 3.40625 -2.070312 3.832031 -1.898438 4.40625 -1.734375 C 4.988281 -1.578125 5.640625 -1.515625 6.359375 -1.546875 C 7.640625 -1.585938 8.582031 -1.863281 9.1875 -2.375 C 9.789062 -2.882812 10.078125 -3.53125 10.046875 -4.3125 C 10.015625 -5.226562 9.695312 -5.941406 9.09375 -6.453125 C 8.488281 -6.960938 7.765625 -7.320312 6.921875 -7.53125 C 6.078125 -7.738281 5.222656 -7.96875 4.359375 -8.21875 C 3.503906 -8.46875 2.773438 -8.890625 2.171875 -9.484375 C 1.566406 -10.085938 1.242188 -10.914062 1.203125 -11.96875 C 1.160156 -13.15625 1.5625 -14.222656 2.40625 -15.171875 C 3.257812 -16.117188 4.546875 -16.625 6.265625 -16.6875 C 7.347656 -16.71875 8.359375 -16.582031 9.296875 -16.28125 C 10.234375 -15.988281 10.707031 -15.660156 10.71875 -15.296875 C 10.726562 -15.109375 10.65625 -14.910156 10.5 -14.703125 C 10.351562 -14.492188 10.1875 -14.382812 10 -14.375 C 9.976562 -14.375 9.570312 -14.507812 8.78125 -14.78125 C 7.988281 -15.0625 7.179688 -15.191406 6.359375 -15.171875 C 5.117188 -15.117188 4.203125 -14.769531 3.609375 -14.125 C 3.023438 -13.488281 2.75 -12.796875 2.78125 -12.046875 C 2.800781 -11.273438 3.109375 -10.679688 3.703125 -10.265625 C 4.304688 -9.847656 5.035156 -9.539062 5.890625 -9.34375 C 6.753906 -9.144531 7.613281 -8.914062 8.46875 -8.65625 C 9.332031 -8.40625 10.070312 -7.9375 10.6875 -7.25 C 11.300781 -6.570312 11.628906 -5.648438 11.671875 -4.484375 C 11.710938 -3.148438 11.273438 -2.085938 10.359375 -1.296875 C 9.441406 -0.503906 8.132812 -0.0820312 6.4375 -0.03125 C 4.96875 0.0195312 3.722656 -0.191406 2.703125 -0.671875 C 1.691406 -1.148438 1.175781 -1.65625 1.15625 -2.1875 Z M 1.15625 -2.1875 "/></g></g></g><g fill="#ffe05c" fill-opacity="1"><g transform="translate(199.987162, 291.764035)"><g><path d="M 2.0625 -1.1875 L -2.921875 -25.578125 C -2.960938 -25.773438 -2.921875 -25.957031 -2.796875 -26.125 C -2.671875 -26.300781 -2.492188 -26.414062 -2.265625 -26.46875 C -2.015625 -26.519531 -1.796875 -26.488281 -1.609375 -26.375 C -1.421875 -26.269531 -1.304688 -26.117188 -1.265625 -25.921875 L 1.09375 -14.359375 C 1.332031 -15.148438 1.789062 -15.875 2.46875 -16.53125 C 3.144531 -17.1875 4.007812 -17.625 5.0625 -17.84375 C 6.707031 -18.175781 8.25 -17.851562 9.6875 -16.875 C 11.125 -15.90625 12.019531 -14.582031 12.375 -12.90625 L 14.25 -3.6875 C 14.351562 -3.195312 14.125 -2.894531 13.5625 -2.78125 C 13.019531 -2.664062 12.695312 -2.851562 12.59375 -3.34375 L 10.71875 -12.5625 C 10.46875 -13.75 9.796875 -14.722656 8.703125 -15.484375 C 7.609375 -16.253906 6.457031 -16.515625 5.25 -16.265625 C 4.09375 -16.023438 3.160156 -15.390625 2.453125 -14.359375 C 1.753906 -13.335938 1.550781 -12.132812 1.84375 -10.75 L 3.71875 -1.53125 C 3.757812 -1.351562 3.710938 -1.164062 3.578125 -0.96875 C 3.441406 -0.78125 3.257812 -0.660156 3.03125 -0.609375 C 2.800781 -0.566406 2.59375 -0.601562 2.40625 -0.71875 C 2.21875 -0.832031 2.101562 -0.988281 2.0625 -1.1875 Z M 2.0625 -1.1875 "/></g></g></g><g clip-path="url(#id2)"><path fill="#ffffff" d="M 254.070312 191.144531 C 253.992188 190.378906 253.324219 189.761719 252.546875 189.761719 C 252.457031 189.761719 252.367188 189.761719 252.277344 189.761719 C 245.425781 184.332031 237.703125 176.441406 234.464844 165.613281 C 233.238281 161.519531 231.472656 158.210938 229.277344 155.492188 C 227.015625 149.171875 222.828125 143.820312 217.054688 140.179688 C 207.167969 133.945312 150.894531 135.867188 142.164062 135.976562 C 138.847656 136.019531 137.273438 140.097656 139.703125 142.367188 C 142.847656 145.296875 146.398438 148.605469 148.984375 150.78125 C 145.351562 156.414062 145.183594 163.757812 146.335938 167.921875 C 147.125 170.785156 147.6875 174.058594 148.078125 176.953125 L 125.304688 155.355469 L 125.285156 155.378906 C 121.820312 160.734375 120.609375 167.902344 123.371094 173.585938 C 124.304688 175.5 125.585938 177.324219 125.910156 179.398438 C 126.433594 182.703125 124.445312 185.839844 123.117188 188.953125 C 121.195312 193.445312 120.03125 198.285156 123.078125 202.222656 L 148.410156 184.683594 C 148.246094 185.125 148.066406 185.59375 147.863281 186.105469 C 143.230469 197.867188 144.199219 203.75 147.433594 211.191406 C 148.703125 214.113281 150.835938 216.195312 152.957031 217.648438 C 155.785156 219.582031 159.039062 220.601562 162.351562 220.773438 L 163.796875 220.847656 C 163.757812 220.816406 163.722656 220.785156 163.6875 220.753906 C 164.148438 220.789062 164.613281 220.8125 165.082031 220.816406 C 172.167969 220.898438 181.207031 221.164062 190.085938 221.417969 C 188.414062 224.28125 186.355469 227.78125 184.839844 230.351562 C 183.964844 231.839844 185.089844 233.707031 186.8125 233.613281 C 192.617188 233.296875 203.4375 231.820312 211.445312 221.972656 C 212.101562 221.96875 212.769531 221.960938 213.445312 221.953125 C 217.46875 221.890625 221.738281 221.675781 225.417969 221.167969 C 227.066406 220.9375 228.601562 220.652344 229.9375 220.292969 C 238.335938 218.042969 246.652344 203.835938 249.535156 198.144531 C 249.613281 198.027344 249.6875 197.914062 249.761719 197.808594 C 250.460938 197.652344 251.078125 197.097656 251.042969 196.3125 C 251.007812 195.539062 250.367188 194.699219 249.511719 194.777344 C 249.023438 194.820312 248.53125 194.835938 248.039062 194.820312 C 247.527344 194.800781 247.175781 194.765625 246.804688 194.695312 C 245.890625 194.53125 244.890625 194.222656 244.175781 193.878906 C 243.8125 193.703125 243.457031 193.511719 243.117188 193.292969 C 243.019531 193.230469 242.917969 193.164062 242.820312 193.09375 C 242.808594 193.085938 242.730469 193.03125 242.683594 192.996094 C 242.640625 192.960938 242.570312 192.902344 242.558594 192.894531 C 242.535156 192.875 242.511719 192.851562 242.488281 192.832031 C 245.839844 192.832031 249.195312 192.832031 252.546875 192.832031 C 253.253906 192.832031 253.871094 192.3125 254.035156 191.644531 L 254.699219 191.613281 C 254.492188 191.460938 254.28125 191.304688 254.070312 191.144531 Z M 254.070312 191.144531 " fill-opacity="1" fill-rule="nonzero"/></g><path fill="#ff8657" d="M 221.410156 187.945312 C 218.566406 190.085938 215.800781 192.355469 213.128906 194.757812 C 211.03125 190.832031 209.320312 186.539062 208.953125 181.988281 C 208.582031 177.4375 209.699219 172.582031 212.601562 169.351562 C 215.589844 171.664062 218.574219 173.972656 221.5625 176.285156 C 219.429688 177.210938 217.863281 179.167969 217.632812 181.554688 C 217.367188 184.304688 218.949219 186.808594 221.410156 187.945312 Z M 148.984375 150.78125 C 145.351562 156.414062 145.183594 163.757812 146.335938 167.921875 C 147.125 170.785156 147.6875 174.058594 148.078125 176.953125 L 152.933594 181.554688 L 152.878906 181.59375 L 152.925781 181.585938 C 152.925781 181.585938 153.378906 181.894531 153.105469 184.273438 L 153.117188 184.269531 C 153.550781 182.242188 153.65625 178.691406 153.671875 176.035156 C 153.683594 174.171875 153.519531 172.308594 153.148438 170.484375 C 150.050781 155.375 158.28125 146.070312 160.5625 143.832031 C 160.917969 143.484375 161.128906 143.304688 161.128906 143.304688 C 155.203125 144.164062 151.355469 147.109375 148.984375 150.78125 Z M 148.984375 150.78125 " fill-opacity="1" fill-rule="nonzero"/><g clip-path="url(#id3)"><path fill="#ffe05c" d="M 195.539062 142.253906 C 195.542969 142.230469 195.546875 142.210938 195.550781 142.191406 C 195.550781 142.191406 165.089844 141.421875 161.152344 143.515625 C 160.960938 143.617188 160.761719 143.722656 160.5625 143.832031 C 160.917969 143.484375 161.128906 143.304688 161.128906 143.304688 C 155.203125 144.164062 151.355469 147.109375 148.984375 150.78125 C 146.398438 148.605469 142.847656 145.296875 139.703125 142.367188 C 137.273438 140.097656 138.847656 136.019531 142.164062 135.976562 C 150.894531 135.867188 207.167969 133.945312 217.054688 140.179688 C 222.828125 143.820312 227.015625 149.171875 229.277344 155.492188 C 223.871094 148.792969 215.832031 145.679688 206.664062 143.339844 C 204.628906 142.820312 200.515625 142.441406 195.539062 142.253906 Z M 151.957031 189.808594 C 152.5625 187.539062 152.890625 185.894531 153.050781 184.695312 C 153.074219 184.550781 153.089844 184.40625 153.105469 184.273438 C 153.378906 181.894531 152.925781 181.585938 152.925781 181.585938 L 152.878906 181.59375 L 152.933594 181.554688 L 148.078125 176.953125 L 125.304688 155.355469 L 137.574219 173.402344 L 140.183594 177.242188 L 140.421875 177.589844 L 142.992188 181.367188 L 143.097656 181.527344 L 123.078125 202.222656 L 148.410156 184.683594 C 148.246094 185.125 148.066406 185.59375 147.863281 186.105469 C 143.230469 197.867188 144.199219 203.75 147.433594 211.191406 C 148.703125 214.113281 150.835938 216.195312 152.957031 217.648438 C 155.785156 219.582031 159.039062 220.601562 162.351562 220.773438 L 163.796875 220.847656 C 163.757812 220.816406 163.722656 220.785156 163.6875 220.753906 C 152.554688 211.089844 147.828125 205.300781 151.957031 189.808594 Z M 254.070312 191.144531 C 253.992188 190.378906 253.324219 189.761719 252.546875 189.761719 C 252.457031 189.761719 252.367188 189.761719 252.277344 189.761719 C 248.175781 189.761719 244.074219 189.761719 239.972656 189.761719 C 239.679688 189.761719 239.402344 189.851562 239.167969 190.003906 C 238.480469 190.300781 237.988281 191.070312 238.238281 191.839844 C 238.828125 193.65625 240.09375 195.050781 241.675781 196.042969 C 238.53125 196.351562 234.429688 196.902344 229.195312 197.863281 C 211.671875 201.070312 198.855469 221.632812 198.855469 221.632812 C 198.855469 221.632812 199.195312 221.652344 199.804688 221.6875 C 201.699219 221.789062 206.234375 221.992188 211.445312 221.972656 C 212.101562 221.96875 212.769531 221.960938 213.445312 221.953125 C 217.46875 221.890625 221.738281 221.675781 225.417969 221.167969 C 227.066406 220.9375 228.601562 220.652344 229.9375 220.292969 C 238.335938 218.042969 246.652344 203.835938 249.535156 198.144531 C 249.589844 198.035156 249.644531 197.925781 249.699219 197.820312 C 249.71875 197.816406 249.742188 197.8125 249.761719 197.808594 C 250.460938 197.652344 251.078125 197.097656 251.042969 196.3125 C 251.007812 195.539062 250.367188 194.699219 249.511719 194.777344 C 249.023438 194.820312 248.53125 194.835938 248.039062 194.820312 C 247.527344 194.800781 247.175781 194.765625 246.804688 194.695312 C 245.890625 194.53125 244.890625 194.222656 244.175781 193.878906 C 243.8125 193.703125 243.457031 193.511719 243.117188 193.292969 C 243.019531 193.230469 242.917969 193.164062 242.820312 193.09375 C 242.808594 193.085938 242.730469 193.03125 242.683594 192.996094 C 242.640625 192.960938 242.570312 192.902344 242.558594 192.894531 C 242.535156 192.875 242.511719 192.851562 242.488281 192.832031 C 245.839844 192.832031 249.195312 192.832031 252.546875 192.832031 C 253.253906 192.832031 253.871094 192.3125 254.035156 191.644531 C 254.0625 191.53125 254.078125 191.414062 254.078125 191.296875 C 254.078125 191.246094 254.074219 191.195312 254.070312 191.144531 Z M 254.070312 191.144531 " fill-opacity="1" fill-rule="nonzero"/></g><g clip-path="url(#id4)"><path fill="#6191dc" d="M 211.445312 221.972656 C 203.4375 231.820312 192.617188 233.296875 186.8125 233.613281 C 185.089844 233.707031 183.964844 231.839844 184.839844 230.351562 C 186.355469 227.78125 188.414062 224.28125 190.085938 221.417969 C 193.382812 221.511719 196.660156 221.605469 199.804688 221.6875 C 201.699219 221.789062 206.234375 221.992188 211.445312 221.972656 Z M 139.230469 183.722656 C 133.359375 187.683594 128.136719 192.585938 123.773438 198.175781 C 123.308594 198.773438 122.484375 197.933594 122.945312 197.34375 C 124.195312 195.742188 125.511719 194.195312 126.898438 192.710938 C 131.390625 187.90625 136.585938 183.761719 142.253906 180.4375 C 142.214844 180.425781 142.175781 180.414062 142.136719 180.402344 C 136.921875 181.261719 131.941406 183.367188 127.667969 186.507812 C 127.054688 186.957031 126.472656 185.9375 127.074219 185.492188 C 130.734375 182.800781 134.90625 180.875 139.296875 179.792969 C 138.191406 179.644531 137.070312 179.585938 135.9375 179.59375 C 133.75 179.601562 131.445312 179.605469 129.292969 180.03125 C 128.550781 180.175781 128.238281 179.042969 128.980469 178.894531 C 131.238281 178.449219 133.640625 178.425781 135.9375 178.414062 C 137.335938 178.40625 138.722656 178.496094 140.089844 178.722656 C 138.257812 178.003906 136.457031 177.199219 134.707031 176.300781 C 133.195312 175.523438 131.71875 174.683594 130.28125 173.773438 C 128.894531 172.898438 127.519531 171.972656 126.382812 170.773438 C 125.863281 170.222656 126.691406 169.390625 127.214844 169.941406 C 128.328125 171.117188 129.675781 172.007812 131.042969 172.863281 C 132.425781 173.730469 133.847656 174.539062 135.300781 175.285156 C 136.96875 176.140625 138.679688 176.90625 140.421875 177.589844 L 140.183594 177.242188 C 139.804688 176.941406 139.429688 176.636719 139.058594 176.324219 C 133.285156 171.507812 128.355469 165.699219 124.441406 159.269531 C 124.03125 158.597656 125.085938 157.980469 125.496094 158.652344 C 126.585938 160.445312 127.753906 162.191406 129.003906 163.882812 C 131.546875 167.320312 134.421875 170.515625 137.574219 173.402344 L 125.304688 155.355469 L 125.285156 155.378906 C 121.820312 160.734375 120.609375 167.902344 123.371094 173.585938 C 124.304688 175.5 125.585938 177.324219 125.910156 179.398438 C 126.433594 182.703125 124.445312 185.839844 123.117188 188.953125 C 121.195312 193.445312 120.03125 198.285156 123.078125 202.222656 L 143.097656 181.527344 L 142.992188 181.367188 C 141.710938 182.113281 140.457031 182.898438 139.230469 183.722656 Z M 173.941406 202.699219 C 176.703125 202.839844 179.597656 202.957031 182.214844 201.894531 C 183.378906 201.421875 184.464844 200.78125 185.355469 199.882812 C 186.261719 198.972656 186.695312 197.785156 187.488281 196.804688 C 188.808594 195.183594 191.304688 195.328125 193.199219 195.371094 C 195.511719 195.421875 197.824219 195.421875 200.132812 195.429688 C 202.796875 195.433594 205.457031 195.433594 208.117188 195.492188 C 209.695312 195.53125 209.695312 193.070312 208.117188 193.035156 C 203.398438 192.925781 198.675781 193.007812 193.953125 192.925781 C 191.699219 192.886719 189.285156 192.757812 187.234375 193.882812 C 186.0625 194.523438 185.324219 195.558594 184.664062 196.6875 C 184.113281 197.632812 183.492188 198.414062 182.554688 198.996094 C 179.988281 200.589844 176.832031 200.390625 173.941406 200.242188 C 173.28125 200.207031 172.71875 200.832031 172.71875 201.46875 C 172.71875 202.164062 173.277344 202.664062 173.941406 202.699219 Z M 185.355469 206.421875 C 186.402344 205.4375 186.792969 203.960938 187.835938 203.003906 C 188.605469 202.292969 189.738281 202.050781 190.761719 201.964844 C 192.039062 201.859375 193.332031 201.933594 194.613281 201.960938 C 196 201.988281 197.390625 202.015625 198.777344 202.039062 C 201.835938 202.097656 204.898438 202.148438 207.960938 202.21875 C 209.535156 202.257812 209.535156 199.800781 207.960938 199.761719 C 205.203125 199.695312 202.445312 199.648438 199.6875 199.597656 C 197.046875 199.550781 194.390625 199.40625 191.75 199.460938 C 190.347656 199.488281 188.941406 199.660156 187.652344 200.234375 C 186.339844 200.820312 185.46875 201.871094 184.757812 203.089844 C 184.140625 204.148438 183.484375 205.054688 182.339844 205.449219 C 181.121094 205.875 179.886719 205.863281 178.59375 205.871094 C 174.792969 205.894531 170.988281 205.8125 167.191406 205.628906 C 166.527344 205.597656 165.964844 206.21875 165.964844 206.859375 C 165.964844 207.550781 166.527344 208.054688 167.191406 208.085938 C 170.628906 208.253906 174.074219 208.335938 177.519531 208.332031 C 180.238281 208.328125 183.234375 208.421875 185.355469 206.421875 Z M 188.476562 211.101562 C 188.964844 210.324219 189.34375 209.417969 190.097656 208.867188 C 190.773438 208.375 191.636719 208.152344 192.457031 208.058594 C 193.46875 207.9375 194.492188 207.972656 195.507812 207.996094 C 196.765625 208.027344 198.023438 208.054688 199.277344 208.085938 C 202.1875 208.15625 205.09375 208.222656 208.003906 208.292969 C 209.582031 208.332031 209.578125 205.871094 208.003906 205.835938 C 205.417969 205.773438 202.832031 205.710938 200.25 205.652344 C 197.90625 205.59375 195.535156 205.417969 193.195312 205.542969 C 191.15625 205.648438 189.007812 206.164062 187.667969 207.828125 C 186.988281 208.671875 186.59375 209.714844 185.875 210.523438 C 185.25 211.226562 184.464844 211.753906 183.605469 212.132812 C 181.222656 213.1875 178.496094 212.992188 175.964844 212.863281 C 175.304688 212.828125 174.738281 213.449219 174.738281 214.089844 C 174.738281 214.785156 175.300781 215.285156 175.964844 215.320312 C 178.425781 215.445312 180.964844 215.554688 183.351562 214.832031 C 185.4375 214.199219 187.300781 212.96875 188.476562 211.101562 Z M 236.328125 181.566406 L 225.285156 167.585938 C 223.625 168.960938 223.3125 169.949219 223.011719 172.089844 C 222.835938 173.324219 222.9375 174.59375 223.285156 175.789062 C 223.832031 175.707031 224.398438 175.6875 224.972656 175.738281 C 228.683594 176.066406 231.414062 179.203125 231.070312 182.746094 C 230.726562 186.285156 227.441406 188.890625 223.730469 188.5625 C 223.621094 188.554688 223.515625 188.539062 223.410156 188.527344 C 222.875 191.136719 223.46875 193.980469 225.058594 196.125 L 235.976562 186.054688 C 237.246094 184.882812 237.402344 182.921875 236.328125 181.566406 Z M 236.328125 181.566406 " fill-opacity="1" fill-rule="nonzero"/></g><path fill="#383c61" d="M 195.550781 142.191406 C 195.546875 142.210938 195.542969 142.230469 195.539062 142.253906 C 189.042969 183.558594 162.695312 185.441406 153.050781 184.695312 C 153.074219 184.550781 153.089844 184.40625 153.105469 184.273438 L 153.117188 184.269531 C 153.550781 182.242188 153.65625 178.691406 153.671875 176.035156 C 153.683594 174.171875 153.519531 172.308594 153.148438 170.484375 C 150.050781 155.375 158.28125 146.070312 160.5625 143.832031 C 160.761719 143.722656 160.960938 143.617188 161.152344 143.515625 C 165.089844 141.421875 195.550781 142.191406 195.550781 142.191406 Z M 224.804688 177 C 222.347656 176.78125 220.128906 178.171875 219.277344 180.261719 C 219.644531 180.003906 220.09375 179.847656 220.585938 179.847656 C 221.808594 179.847656 222.804688 180.808594 222.804688 181.996094 C 222.804688 183.183594 221.808594 184.144531 220.585938 184.144531 C 220.035156 184.144531 219.53125 183.949219 219.144531 183.628906 C 219.765625 185.570312 221.558594 187.058594 223.808594 187.257812 C 226.777344 187.519531 229.40625 185.4375 229.679688 182.605469 C 229.953125 179.773438 227.769531 177.261719 224.804688 177 Z M 224.804688 177 " fill-opacity="1" fill-rule="nonzero"/><g clip-path="url(#id5)"><path fill="#ffffff" d="M 254.035156 191.644531 C 254.0625 191.53125 254.078125 191.414062 254.078125 191.296875 C 254.078125 191.246094 254.074219 191.195312 254.070312 191.144531 C 254.28125 191.304688 254.492188 191.460938 254.699219 191.613281 Z M 249.535156 198.144531 C 249.613281 198.027344 249.6875 197.914062 249.761719 197.808594 C 249.742188 197.8125 249.71875 197.816406 249.699219 197.820312 C 249.644531 197.925781 249.589844 198.035156 249.535156 198.144531 Z M 252.277344 189.761719 C 248.175781 189.761719 244.074219 189.761719 239.972656 189.761719 C 239.679688 189.761719 239.402344 189.851562 239.167969 190.003906 C 238.480469 190.300781 237.988281 191.070312 238.238281 191.839844 C 238.828125 193.65625 240.09375 195.050781 241.675781 196.042969 C 238.53125 196.351562 234.429688 196.902344 229.195312 197.863281 C 211.671875 201.070312 198.855469 221.632812 198.855469 221.632812 C 198.855469 221.632812 199.195312 221.652344 199.804688 221.6875 C 196.660156 221.605469 193.382812 221.511719 190.085938 221.417969 C 181.207031 221.164062 172.167969 220.898438 165.082031 220.816406 C 164.613281 220.8125 164.148438 220.789062 163.6875 220.753906 C 152.554688 211.089844 147.828125 205.300781 151.957031 189.808594 C 152.5625 187.539062 152.890625 185.894531 153.050781 184.695312 C 162.695312 185.441406 189.042969 183.558594 195.539062 142.253906 C 200.515625 142.441406 204.628906 142.820312 206.664062 143.339844 C 215.832031 145.679688 223.871094 148.792969 229.277344 155.492188 C 231.472656 158.210938 233.238281 161.519531 234.464844 165.613281 C 237.703125 176.441406 245.425781 184.332031 252.277344 189.761719 Z M 167.191406 208.085938 C 170.628906 208.253906 174.074219 208.335938 177.519531 208.332031 C 180.238281 208.328125 183.234375 208.421875 185.355469 206.421875 C 186.402344 205.4375 186.792969 203.960938 187.835938 203.003906 C 188.605469 202.292969 189.738281 202.050781 190.761719 201.964844 C 192.039062 201.859375 193.332031 201.933594 194.613281 201.960938 C 196 201.988281 197.390625 202.015625 198.777344 202.039062 C 201.835938 202.097656 204.898438 202.148438 207.960938 202.21875 C 209.535156 202.257812 209.535156 199.800781 207.960938 199.761719 C 205.203125 199.695312 202.445312 199.648438 199.6875 199.597656 C 197.046875 199.550781 194.390625 199.40625 191.75 199.460938 C 190.347656 199.488281 188.941406 199.660156 187.652344 200.234375 C 186.339844 200.820312 185.46875 201.871094 184.757812 203.089844 C 184.140625 204.148438 183.484375 205.054688 182.339844 205.449219 C 181.121094 205.875 179.886719 205.863281 178.59375 205.871094 C 174.792969 205.894531 170.988281 205.8125 167.191406 205.628906 C 166.527344 205.597656 165.964844 206.21875 165.964844 206.859375 C 165.964844 207.550781 166.527344 208.054688 167.191406 208.085938 Z M 208.003906 205.835938 C 205.417969 205.773438 202.832031 205.710938 200.25 205.652344 C 197.90625 205.59375 195.535156 205.417969 193.195312 205.542969 C 191.15625 205.648438 189.007812 206.164062 187.667969 207.828125 C 186.988281 208.671875 186.59375 209.714844 185.875 210.523438 C 185.25 211.226562 184.464844 211.753906 183.605469 212.132812 C 181.222656 213.1875 178.496094 212.992188 175.964844 212.863281 C 175.304688 212.828125 174.738281 213.449219 174.738281 214.089844 C 174.738281 214.785156 175.300781 215.285156 175.964844 215.320312 C 178.425781 215.445312 180.964844 215.554688 183.351562 214.832031 C 185.4375 214.199219 187.300781 212.96875 188.476562 211.101562 C 188.964844 210.324219 189.34375 209.417969 190.097656 208.867188 C 190.773438 208.375 191.636719 208.152344 192.457031 208.058594 C 193.46875 207.9375 194.492188 207.972656 195.507812 207.996094 C 196.765625 208.027344 198.023438 208.054688 199.277344 208.085938 C 202.1875 208.15625 205.09375 208.222656 208.003906 208.292969 C 209.582031 208.332031 209.578125 205.871094 208.003906 205.835938 Z M 208.117188 193.035156 C 203.398438 192.925781 198.675781 193.007812 193.953125 192.925781 C 191.699219 192.886719 189.285156 192.757812 187.234375 193.882812 C 186.0625 194.523438 185.324219 195.558594 184.664062 196.6875 C 184.113281 197.632812 183.492188 198.414062 182.554688 198.996094 C 179.988281 200.589844 176.832031 200.390625 173.941406 200.242188 C 173.28125 200.207031 172.71875 200.832031 172.71875 201.46875 C 172.71875 202.164062 173.277344 202.664062 173.941406 202.699219 C 176.703125 202.839844 179.597656 202.957031 182.214844 201.894531 C 183.378906 201.421875 184.464844 200.78125 185.355469 199.882812 C 186.261719 198.972656 186.695312 197.785156 187.488281 196.804688 C 188.808594 195.183594 191.304688 195.328125 193.199219 195.371094 C 195.511719 195.421875 197.824219 195.421875 200.132812 195.429688 C 202.796875 195.433594 205.457031 195.433594 208.117188 195.492188 C 209.695312 195.53125 209.695312 193.070312 208.117188 193.035156 Z M 221.410156 187.945312 C 218.949219 186.808594 217.367188 184.304688 217.632812 181.554688 C 217.863281 179.167969 219.429688 177.210938 221.5625 176.285156 C 218.574219 173.972656 215.589844 171.664062 212.601562 169.351562 C 209.699219 172.582031 208.582031 177.4375 208.953125 181.988281 C 209.320312 186.539062 211.03125 190.832031 213.128906 194.757812 C 215.800781 192.355469 218.566406 190.085938 221.410156 187.945312 Z M 222.804688 181.996094 C 222.804688 183.183594 221.808594 184.144531 220.585938 184.144531 C 220.035156 184.144531 219.53125 183.949219 219.144531 183.628906 C 219.765625 185.570312 221.558594 187.058594 223.808594 187.257812 C 226.777344 187.519531 229.40625 185.4375 229.679688 182.605469 C 229.953125 179.773438 227.769531 177.261719 224.804688 177 C 222.347656 176.78125 220.128906 178.171875 219.277344 180.261719 C 219.644531 180.003906 220.09375 179.847656 220.585938 179.847656 C 221.808594 179.847656 222.804688 180.808594 222.804688 181.996094 Z M 236.328125 181.566406 L 225.285156 167.585938 C 223.625 168.960938 223.3125 169.949219 223.011719 172.089844 C 222.835938 173.324219 222.9375 174.59375 223.285156 175.789062 C 223.832031 175.707031 224.398438 175.6875 224.972656 175.738281 C 228.683594 176.066406 231.414062 179.203125 231.070312 182.746094 C 230.726562 186.285156 227.441406 188.890625 223.730469 188.5625 C 223.621094 188.554688 223.515625 188.539062 223.410156 188.527344 C 222.875 191.136719 223.46875 193.980469 225.058594 196.125 L 235.976562 186.054688 C 237.246094 184.882812 237.402344 182.921875 236.328125 181.566406 Z M 139.058594 176.324219 C 139.429688 176.636719 139.804688 176.941406 140.183594 177.242188 L 137.574219 173.402344 C 134.421875 170.515625 131.546875 167.320312 129.003906 163.882812 C 127.753906 162.191406 126.585938 160.445312 125.496094 158.652344 C 125.085938 157.980469 124.03125 158.597656 124.441406 159.269531 C 128.355469 165.699219 133.285156 171.507812 139.058594 176.324219 Z M 135.300781 175.285156 C 133.847656 174.539062 132.425781 173.730469 131.042969 172.863281 C 129.675781 172.007812 128.328125 171.117188 127.214844 169.941406 C 126.691406 169.390625 125.863281 170.222656 126.382812 170.773438 C 127.519531 171.972656 128.894531 172.898438 130.28125 173.773438 C 131.71875 174.683594 133.195312 175.523438 134.707031 176.300781 C 136.457031 177.199219 138.257812 178.003906 140.089844 178.722656 C 138.722656 178.496094 137.335938 178.40625 135.9375 178.414062 C 133.640625 178.425781 131.238281 178.449219 128.980469 178.894531 C 128.238281 179.042969 128.550781 180.175781 129.292969 180.03125 C 131.445312 179.605469 133.75 179.601562 135.9375 179.59375 C 137.070312 179.585938 138.191406 179.644531 139.296875 179.792969 C 134.90625 180.875 130.734375 182.800781 127.074219 185.492188 C 126.472656 185.9375 127.054688 186.957031 127.667969 186.507812 C 131.941406 183.367188 136.921875 181.261719 142.136719 180.402344 C 142.175781 180.414062 142.214844 180.425781 142.253906 180.4375 C 136.585938 183.761719 131.390625 187.90625 126.898438 192.710938 C 125.511719 194.195312 124.195312 195.742188 122.945312 197.34375 C 122.484375 197.933594 123.308594 198.773438 123.773438 198.175781 C 128.136719 192.585938 133.359375 187.683594 139.230469 183.722656 C 140.457031 182.898438 141.710938 182.113281 142.992188 181.367188 L 140.421875 177.589844 C 138.679688 176.90625 136.96875 176.140625 135.300781 175.285156 Z M 135.300781 175.285156 " fill-opacity="1" fill-rule="nonzero"/></g><g fill="#ffffff" fill-opacity="1"><g transform="translate(102.669063, 175.77941)"><g><path d="M -25.523438 -27.105469 L -29.6875 -9.574219 L 0.566406 -2.382812 L 2.207031 -9.277344 L -9.933594 -12.164062 L -7.597656 -21.992188 L -13.648438 -23.429688 L -15.984375 -13.601562 L -22 -15.03125 L -19.472656 -25.667969 Z M -25.523438 -27.105469 "/></g></g></g><g fill="#ffffff" fill-opacity="1"><g transform="translate(106.046921, 155.714403)"><g><path d="M -15.957031 -33.820312 L -19.335938 -28.199219 L 0.875 -1.453125 L 4.796875 -7.980469 L 0.628906 -13.121094 L 6.726562 -23.269531 L 13.261719 -22.066406 L 17.183594 -28.59375 Z M 0.152344 -24.402344 L -3.457031 -18.394531 L -9.425781 -26.027344 Z M 0.152344 -24.402344 "/></g></g></g><g fill="#ffffff" fill-opacity="1"><g transform="translate(122.237213, 128.17139)"><g><path d="M 2.210938 -1.761719 L 7.757812 -6.175781 L -2.199219 -18.679688 L 23.035156 -18.335938 L 3.664062 -42.667969 L -1.878906 -38.253906 L 8.039062 -25.671875 L -17.15625 -26.089844 Z M 2.210938 -1.761719 "/></g></g></g><g fill="#ffffff" fill-opacity="1"><g transform="translate(145.303145, 109.89861)"><g><path d="M -7.078125 -23.929688 L -0.175781 -26.5625 L 8.699219 -3.320312 L 15.320312 -5.847656 L 6.445312 -29.089844 L 13.347656 -31.726562 L 11.128906 -37.539062 L -9.296875 -29.738281 Z M -7.078125 -23.929688 "/></g></g></g><g fill="#ffffff" fill-opacity="1"><g transform="translate(166.321805, 100.576288)"><g><path d="M 19.441406 -31.945312 L 12.886719 -31.671875 L 1.695312 -0.0703125 L 9.300781 -0.394531 L 11.300781 -6.703125 L 23.125 -7.203125 L 25.722656 -1.085938 L 33.332031 -1.40625 Z M 20.453125 -13.3125 L 13.449219 -13.019531 L 16.53125 -22.203125 Z M 20.453125 -13.3125 "/></g></g></g><g fill="#ffffff" fill-opacity="1"><g transform="translate(198.357783, 99.363254)"><g><path d="M 7.984375 -7.535156 L 2.890625 -2.835938 C 12.640625 9.464844 24.894531 5.28125 27.011719 -1.835938 C 29.484375 -10.144531 16.546875 -14.898438 17.523438 -18.1875 C 18.265625 -20.679688 23.988281 -21.140625 27.28125 -15.953125 L 31.640625 -20.554688 C 21.699219 -30.90625 12.703125 -26.308594 10.800781 -19.910156 C 8.769531 -13.082031 20.851562 -8.347656 19.453125 -3.652344 C 18.128906 0.792969 11.128906 -3.570312 7.984375 -7.535156 Z M 7.984375 -7.535156 "/></g></g></g><g fill="#ffffff" fill-opacity="1"><g transform="translate(222.181709, 106.189053)"><g><path d="M 15.058594 -19.898438 L 21.277344 -15.90625 L 7.835938 5.03125 L 13.796875 8.859375 L 27.238281 -12.078125 L 33.457031 -8.085938 L 36.816406 -13.320312 L 18.417969 -25.132812 Z M 15.058594 -19.898438 "/></g></g></g><g fill="#ffffff" fill-opacity="1"><g transform="translate(241.883359, 119.383027)"><g><path d="M 28.839844 -15.289062 L 23.773438 -20.246094 L 2.019531 1.976562 L 7.085938 6.933594 Z M 28.839844 -15.289062 "/></g></g></g><g fill="#ffffff" fill-opacity="1"><g transform="translate(250.398421, 126.013638)"><g><path d="M 15.84375 23.023438 L 20.90625 17.996094 C 20.90625 17.996094 18.152344 16.492188 16.203125 13.441406 C 12.363281 7.441406 14.871094 2.125 18.394531 -0.128906 C 21.890625 -2.363281 27.765625 -2.410156 31.605469 3.59375 C 33.554688 6.640625 33.765625 9.773438 33.765625 9.773438 L 40.453125 7.285156 C 40.453125 7.285156 40.527344 4.601562 36.890625 -1.085938 C 32.140625 -8.515625 21.714844 -11.382812 14.191406 -6.566406 C 6.695312 -1.777344 5.007812 8.878906 9.738281 16.277344 C 13.375 21.964844 15.84375 23.023438 15.84375 23.023438 Z M 15.84375 23.023438 "/></g></g></g><g fill="#ffffff" fill-opacity="1"><g transform="translate(265.333732, 148.852187)"><g><path d="M 36.546875 16.355469 L 34.71875 9.507812 L 23.101562 12.605469 L 20.984375 4.664062 L 32.601562 1.566406 L 30.777344 -5.28125 L 0.726562 2.730469 L 2.554688 9.578125 L 14.136719 6.492188 L 16.253906 14.429688 L 4.671875 17.519531 L 6.496094 24.367188 Z M 36.546875 16.355469 "/></g></g></g><g clip-path="url(#id6)"><path fill="#ffffff" d="M 255.285156 171.09375 C 253.007812 171.09375 251.160156 172.941406 251.160156 175.21875 C 251.160156 177.496094 253.007812 179.34375 255.285156 179.34375 C 257.5625 179.34375 259.410156 177.496094 259.410156 175.21875 C 259.410156 172.941406 257.5625 171.09375 255.285156 171.09375 " fill-opacity="1" fill-rule="nonzero"/></g><g clip-path="url(#id7)"><path fill="#ffffff" d="M 132.957031 215.164062 C 127.777344 215.164062 123.582031 219.363281 123.582031 224.539062 C 123.582031 229.71875 127.777344 233.914062 132.957031 233.914062 C 138.132812 233.914062 142.332031 229.71875 142.332031 224.539062 C 142.332031 219.363281 138.132812 215.164062 132.957031 215.164062 " fill-opacity="1" fill-rule="nonzero"/></g><g clip-path="url(#id8)"><path fill="#ffffff" d="M 218.023438 115.550781 C 212.84375 115.550781 208.648438 119.746094 208.648438 124.925781 C 208.648438 130.101562 212.84375 134.300781 218.023438 134.300781 C 223.199219 134.300781 227.398438 130.101562 227.398438 124.925781 C 227.398438 119.746094 223.199219 115.550781 218.023438 115.550781 " fill-opacity="1" fill-rule="nonzero"/></g><g clip-path="url(#id9)"><path fill="#6191dc" d="M 127.449219 249.917969 C 124.34375 249.917969 121.828125 252.269531 121.828125 255.167969 C 121.828125 258.070312 124.34375 260.417969 127.449219 260.417969 C 130.550781 260.417969 133.066406 258.070312 133.066406 255.167969 C 133.066406 252.269531 130.550781 249.917969 127.449219 249.917969 " fill-opacity="1" fill-rule="nonzero"/></g><g clip-path="url(#id10)"><path fill="#6191dc" d="M 103.824219 209.460938 C 100.722656 209.460938 98.207031 211.808594 98.207031 214.710938 C 98.207031 217.609375 100.722656 219.960938 103.824219 219.960938 C 106.929688 219.960938 109.445312 217.609375 109.445312 214.710938 C 109.445312 211.808594 106.929688 209.460938 103.824219 209.460938 " fill-opacity="1" fill-rule="nonzero"/></g><g clip-path="url(#id11)"><path fill="#6191dc" d="M 252.546875 148.832031 C 250.265625 148.832031 248.421875 150.679688 248.421875 152.957031 C 248.421875 155.234375 250.265625 157.082031 252.546875 157.082031 C 254.824219 157.082031 256.671875 155.234375 256.671875 152.957031 C 256.671875 150.679688 254.824219 148.832031 252.546875 148.832031 " fill-opacity="1" fill-rule="nonzero"/></g><g clip-path="url(#id12)"><path fill="#ffffff" d="M 278.097656 201.453125 C 275.820312 201.453125 273.972656 203.300781 273.972656 205.578125 C 273.972656 207.855469 275.820312 209.703125 278.097656 209.703125 C 280.378906 209.703125 282.222656 207.855469 282.222656 205.578125 C 282.222656 203.300781 280.378906 201.453125 278.097656 201.453125 " fill-opacity="1" fill-rule="nonzero"/></g></svg>